<svg xmlns="http://www.w3.org/2000/svg" xmlns:xlink="http://www.w3.org/1999/xlink" width="39.985" height="66.569" viewBox="0 0 39.985 66.569">
  <defs>
    <linearGradient id="linear-gradient" x1="-0.42" y1="-0.495" x2="2.897" y2="-0.609" gradientUnits="objectBoundingBox">
      <stop offset="0" stop-color="#4dd4ff"/>
      <stop offset="0.379" stop-color="#d45dff"/>
      <stop offset="1" stop-color="#e64dff"/>
    </linearGradient>
  </defs>
  <g id="_8" data-name="8" transform="translate(-365.907 -192.6)">
    <path id="パス_114" data-name="パス 114" d="M376.813,289.881c-3.353.715-5.5,1.565-7.108,2.817a9.356,9.356,0,0,0-3.711,7.377,39.331,39.331,0,0,0,.089,6.259c.045.358.045.715.089,1.118a.729.729,0,0,0,.715.671h.045a.737.737,0,0,0,.671-.76c-.045-.4-.045-.76-.089-1.118a43.182,43.182,0,0,1-.089-6.08,7.913,7.913,0,0,1,3.174-6.348,15.323,15.323,0,0,1,6.527-2.548.7.7,0,0,0,.536-.8A.749.749,0,0,0,376.813,289.881Z" transform="translate(0 -53.781)" fill="url(#linear-gradient)"/>
    <path id="パス_115" data-name="パス 115" d="M405.7,246.025a12.694,12.694,0,0,0-2.012-4.292c-.045-.089-.134-.134-.179-.179l1.162-5.052a.5.5,0,0,0-.358-.581l-13.189-3.04c5.32-2.1,8.807-7.108,10.149-12.205a2.451,2.451,0,0,0,1.431-.626A7.5,7.5,0,0,0,404.851,215a3.192,3.192,0,0,0-.939-2.682,2.326,2.326,0,0,0-1.386-.536c.313-6.214-1.118-11.177-4.158-14.485-2.906-3.13-7.153-4.694-12.7-4.694s-9.836,1.565-12.7,4.694c-3.04,3.308-4.471,8.316-4.158,14.485a2.211,2.211,0,0,0-1.386.536,3.286,3.286,0,0,0-.939,2.682,7.5,7.5,0,0,0,2.146,5.052,3.129,3.129,0,0,0,1.431.626c1.207,4.471,4.381,9.88,9.97,12.16a14.861,14.861,0,0,0,5.633,1.073,16.451,16.451,0,0,0,2.593-.224l-.179.76-1.118-.179a.482.482,0,0,0-.358.089.452.452,0,0,0-.179.313l-.536,3.845a1.573,1.573,0,0,0-.536.089h0l-3.308,1.922-2.459-2.727a.7.7,0,0,0-1.028.939l2.817,3.174a.74.74,0,0,0,.536.224,1.053,1.053,0,0,0,.358-.089l3.487-2.012h0l-.358,2.459a4,4,0,0,0-3,.984c-1.654,1.922-1.7,6.751-.76,8.4a3.14,3.14,0,0,0,2.1,1.386l-.4,2.861a.462.462,0,0,0,.4.536l15.469,2.5h.089a.635.635,0,0,0,.268-.089.453.453,0,0,0,.179-.313l.313-2.1c2.146-.134,4.56-1.252,5.5-3.308A11.93,11.93,0,0,0,405.7,246.025Zm-34.38-26.243a.687.687,0,0,0-.76-.536,1.29,1.29,0,0,1-1.028-.313,6.412,6.412,0,0,1-1.609-4.113,1.894,1.894,0,0,1,.447-1.475c.089-.089.358-.313,1.073-.134a.776.776,0,0,0,.626-.134.721.721,0,0,0,.268-.581c-.492-6.17.8-11.132,3.711-14.262,2.638-2.817,6.572-4.247,11.669-4.247,5.141,0,9.076,1.431,11.669,4.247,2.906,3.13,4.2,8.092,3.711,14.262a.721.721,0,0,0,.268.581.776.776,0,0,0,.626.134c.715-.179.984.045,1.073.134a1.894,1.894,0,0,1,.447,1.475,6.411,6.411,0,0,1-1.609,4.113,1.29,1.29,0,0,1-1.028.313.687.687,0,0,0-.76.536c-1.475,6.3-6.483,12.7-14.351,12.7a12.944,12.944,0,0,1-5.1-.984C375.255,229.3,372.3,224.029,371.321,219.782Zm17.972,13.636h.045l14.262,3.308-1.833,8.047,1.028-7.556a.462.462,0,0,0-.4-.536l-13.412-2.146Zm-1.967,1.788,14.53,2.325-1.341,9.657c-1.967-.447-6.17-1.341-7.064-1.52a1.431,1.431,0,0,0-1.118.224,2.238,2.238,0,0,0-.358.313,3.385,3.385,0,0,1-1.028-.581,15.817,15.817,0,0,0-2.1-3.264,2.068,2.068,0,0,0-2.459-.224l.358-2.548.045-.313Zm-4.515,15.916c-.715-1.252-.626-5.41.626-6.84A2.233,2.233,0,0,1,385,243.79a.338.338,0,0,1-.045.179c-.045.313-.089.626-.089.715a.5.5,0,0,0,.134.492,2.544,2.544,0,0,0,1.386.939.727.727,0,0,0,.76-.268.67.67,0,0,0,0-.8,8.3,8.3,0,0,1-.492-.849l-.134-.224c-.089-.179.224-.4.268-.447a1.123,1.123,0,0,1,1.028-.224,15.05,15.05,0,0,1,1.922,3,3.21,3.21,0,0,0,1.52,1.162,9.358,9.358,0,0,0-.671,2.325,19.619,19.619,0,0,0-.4,2.682,20.65,20.65,0,0,0-2.906-.268C383.749,252.15,382.989,251.435,382.81,251.122Zm1.475,4.6.358-2.325a15.28,15.28,0,0,0,2.638.179,18.924,18.924,0,0,1,2.906.268c.134,1.028.492,1.3.939,1.386,1.475.268,5.41.984,7.556,1.341.134,0,.224.045.358.045l-.224,1.475Zm19.895-3.04c-.849,1.833-3.487,2.772-5.32,2.459-2.057-.358-5.723-.984-7.332-1.3a11.82,11.82,0,0,1,.358-3.845,5.631,5.631,0,0,1,1.162-2.906l.045-.045c1.118.224,7.958,1.744,8,1.744a.706.706,0,0,0,.849-.536v-.179l1.073-4.784a12.315,12.315,0,0,1,1.3,3.085A9.356,9.356,0,0,1,404.18,252.687Z" transform="translate(-0.32)" fill="url(#linear-gradient)"/>
    <path id="パス_116" data-name="パス 116" d="M397.369,212.1c5.5,3.4,7.6,7.332,7.913,8.941a.684.684,0,0,0,1.341-.268c-.536-2.638-3.621-6.974-9.12-10.193a.683.683,0,0,0-.894.179c-4.381,5.946-10.73,9.925-16.989,10.64a.7.7,0,0,0-.626.76.714.714,0,0,0,.671.626h.089C386.281,222.075,392.809,218.1,397.369,212.1Z" transform="translate(-7.233 -9.893)" fill="url(#linear-gradient)"/>
  </g>
</svg>
