<svg xmlns="http://www.w3.org/2000/svg" xmlns:xlink="http://www.w3.org/1999/xlink" width="55.825" height="60" viewBox="0 0 55.825 60">
  <defs>
    <linearGradient id="linear-gradient" y1="0.5" x2="0.975" y2="0.5" gradientUnits="objectBoundingBox">
      <stop offset="0" stop-color="#4dd4ff"/>
      <stop offset="1" stop-color="#e64dff"/>
    </linearGradient>
  </defs>
  <path id="合体_6" data-name="合体 6" d="M-1471.194,38a1.178,1.178,0,0,1-1.2-1.26V33.918h-28V36.74a1.177,1.177,0,0,1-1.2,1.26h-6.1a1.178,1.178,0,0,1-1.2-1.26V31.009a58.631,58.631,0,0,1-.445-6.817c0-2.432.178-6.9.891-8.207a12.562,12.562,0,0,1,1.068-1.65c-1.291-.043-2.537-.043-2.982-.043a1.89,1.89,0,0,1-1.87-1.346,5.287,5.287,0,0,1,.222-2.779A5.746,5.746,0,0,1-1515,5.172,5.847,5.847,0,0,1-1509.079-.6a5.841,5.841,0,0,1,5.787,4.733c.268-.652.534-1.26.8-1.911a3.659,3.659,0,0,1,1.246-1.563,7.847,7.847,0,0,1,7.79-6.643,7.9,7.9,0,0,1,7.39,5.08c1.692,0,4.853.044,8.058.3a6.232,6.232,0,0,1-3.606-5.6,6.288,6.288,0,0,1,6.366-6.209,6.288,6.288,0,0,1,6.366,6.209,5.656,5.656,0,0,1-.4,2.128,6.69,6.69,0,0,1,1.6-.174,8.428,8.428,0,0,1,8.5,8.294,8.114,8.114,0,0,1-2,5.341,1.216,1.216,0,0,1,.4.695,5.138,5.138,0,0,1,.267,2.866,1.89,1.89,0,0,1-1.87,1.346c-.4.043-1.692.043-2.983.043.4.565.8,1.173,1.068,1.65.712,1.3.891,5.775.891,8.207a49.508,49.508,0,0,1-.446,6.817V36.74a1.178,1.178,0,0,1-1.2,1.26Zm-.579-5.341a.6.6,0,0,1,.623.608V36.74h6.01V30.835a51.35,51.35,0,0,0,.445-6.687c0-1.714-.085-3.388-.218-4.743a2.883,2.883,0,0,1-.717,2.051,3.229,3.229,0,0,1-2.4.912h-4.006a3.521,3.521,0,0,1-2.449-.825,2.243,2.243,0,0,1-.623-1.563c0-1.52.846-2.475,2.626-2.953.935-.217,2.092-.478,3.784-.782a3.07,3.07,0,0,1,2.537.565,3.3,3.3,0,0,1,1.174,1.885,8.285,8.285,0,0,0-.461-2.189,18.931,18.931,0,0,0-1.158-1.737c-.178-.26-.356-.477-.534-.738a.583.583,0,0,1-.044-.652.7.7,0,0,1,.578-.347c2.27,0,3.74-.043,4.185-.043.4,0,.668-.174.712-.391a6.579,6.579,0,0,0-.044-2.084c0-.087-.089-.174-.179-.261a8.55,8.55,0,0,1-5.564,2.041,8.685,8.685,0,0,1-2.4-.348,2.73,2.73,0,0,1-.534.217,27.892,27.892,0,0,1-4.54.695c-2.226.131-4.141.131-6.678.131h-7.3c-3.561,0-5.876,0-8.636-.131a23.856,23.856,0,0,1-4.541-.695c-1.024-.347-1.6-1.042-1.424-1.78a41.675,41.675,0,0,1,2.27-6.947l.133-.261c-.044-.217-.044-.477-.089-.695-.044.044-.089.087-.089.131a87.8,87.8,0,0,0-3.161,8.337.667.667,0,0,1-.623.434h-.044a.612.612,0,0,1-.579-.477,3.3,3.3,0,0,0-.133-.608c-.044-.174-.089-.261-.178-.3a5.742,5.742,0,0,1-3.072.868,6.1,6.1,0,0,1-1.78-.26,3.925,3.925,0,0,0-.178,2,.742.742,0,0,0,.712.391c.445.043,1.914.043,4.185.043a.6.6,0,0,1,.579.347.676.676,0,0,1-.045.652c-.178.217-.356.478-.534.738-.445.652-.89,1.26-1.157,1.737a7.972,7.972,0,0,0-.5,2.4,3.12,3.12,0,0,1,1.216-2.1,3.173,3.173,0,0,1,2.493-.565c1.691.3,2.849.521,3.784.782,1.781.434,2.626,1.433,2.671,2.952a2.1,2.1,0,0,1-.624,1.563,3.519,3.519,0,0,1-2.448.825h-4.007a3.255,3.255,0,0,1-2.4-.912,2.8,2.8,0,0,1-.723-2.155c-.134,1.373-.211,3.089-.211,4.848a51.276,51.276,0,0,0,.445,6.687V36.74h6.01V33.266a.6.6,0,0,1,.623-.608Zm-34.457-15.372a2.74,2.74,0,0,0-1.024,1.911,2.435,2.435,0,0,0,.534,1.824,2.552,2.552,0,0,0,1.914.695h3.962a3.255,3.255,0,0,0,2.048-.652,1.556,1.556,0,0,0,.489-1.086c0-1.216-.667-1.954-2.181-2.345-.89-.261-2.048-.478-3.739-.782a2.918,2.918,0,0,0-.494-.043A2.548,2.548,0,0,0-1506.23,17.287Zm37.617-.521c-1.691.3-2.849.565-3.739.782-1.469.391-2.137,1.129-2.137,2.345a1.455,1.455,0,0,0,.445,1.129,2.959,2.959,0,0,0,2.048.652h3.963a2.524,2.524,0,0,0,1.915-.695,2.08,2.08,0,0,0,.534-1.824,2.517,2.517,0,0,0-1.068-1.954,2.473,2.473,0,0,0-1.47-.478A2.062,2.062,0,0,0-1468.613,16.766Zm-34.456-6.209c-.089.478.446.912,1.024,1.086a26.228,26.228,0,0,0,4.363.695c2.76.13,5.075.13,8.592.13h5.342c3.516,0,5.832,0,8.592-.13a31.772,31.772,0,0,0,4.185-.652,8.285,8.285,0,0,1-5.208-7.642,7.816,7.816,0,0,1,.222-1.78c-2.938-.3-6.455-.391-9.66-.391a7.8,7.8,0,0,1-7.88,7.512,7.985,7.985,0,0,1-7.524-5.211A42.054,42.054,0,0,0-1503.069,10.556Zm29.827-10.942a7.027,7.027,0,0,0-1.6,4.429,7.151,7.151,0,0,0,7.211,7.034,7.123,7.123,0,0,0,7.212-7.034,7.123,7.123,0,0,0-7.212-7.034A7.234,7.234,0,0,0-1473.243-.386Zm-40.6,5.515a4.6,4.6,0,0,0,4.629,4.516,4.6,4.6,0,0,0,4.631-4.516,4.6,4.6,0,0,0-4.631-4.516A4.6,4.6,0,0,0-1513.842,5.129Zm13.711-3.43a6.569,6.569,0,0,0,6.633,6.47,6.569,6.569,0,0,0,6.632-6.47,6.569,6.569,0,0,0-6.632-6.47A6.569,6.569,0,0,0-1500.131,1.7Zm14.513-.435a90.463,90.463,0,0,1,9.839.391,5.356,5.356,0,0,1,.267-.782c-3.65-.434-7.968-.521-10.194-.564A6.957,6.957,0,0,1-1485.618,1.264Zm5.253-7.469a5,5,0,0,0,5.12,4.951,5.249,5.249,0,0,0,1.157-.13,8.849,8.849,0,0,1,3.206-2.258,4.685,4.685,0,0,0,.756-2.562,5.031,5.031,0,0,0-5.12-4.994A5.058,5.058,0,0,0-1480.365-6.205Zm-11.352,36.171a.3.3,0,0,1-.312-.3v-4.82a.3.3,0,0,1,.312-.3h10.64a.3.3,0,0,1,.312.3v4.82a.3.3,0,0,1-.312.3Zm.312-.608h10.017V25.19h-10.017ZM-1473.065,6.3l-.044-.044c-.045-.043-.045-.043-.045-.087V6.127a2.486,2.486,0,0,1,.223-2.214,2.361,2.361,0,0,1,1.825-.869l.623-.043c1.825-.087,3.25-.131,4.185-1.26a2.037,2.037,0,0,0,.267-2.171,1.77,1.77,0,0,0-1.6-1,.189.189,0,0,1-.178-.174.189.189,0,0,1,.178-.173A5.847,5.847,0,0,1-1461.713,4a5.847,5.847,0,0,1-5.921,5.775A5.892,5.892,0,0,1-1473.065,6.3Zm7.39-6.861a2.333,2.333,0,0,1-.312,2.605c-1.068,1.26-2.627,1.3-4.5,1.39l-.623.043a1.858,1.858,0,0,0-1.514.695,1.838,1.838,0,0,0-.133,1.78V6a.043.043,0,0,1,.045.044l.044.087a5.542,5.542,0,0,0,5.074,3.256A5.452,5.452,0,0,0-1462.069,4a5.481,5.481,0,0,0-4.051-5.211A3.4,3.4,0,0,1-1465.675-.56Zm-43.449,9.6a4.044,4.044,0,0,1-3.7-2.388l-.044-.043a.043.043,0,0,1-.045-.044V6.518a1.707,1.707,0,0,1,.178-1.52,1.516,1.516,0,0,1,1.246-.609h.4c1.2-.043,2.137-.086,2.76-.825a1.322,1.322,0,0,0,.178-1.39,1.1,1.1,0,0,0-1.024-.651.189.189,0,0,1-.178-.174.189.189,0,0,1,.178-.174,4.017,4.017,0,0,1,4.051,3.952,3.942,3.942,0,0,1-3.929,3.909Zm-3.383-2.475a3.72,3.72,0,0,0,3.339,2.171,3.623,3.623,0,0,0,3.65-3.561,3.574,3.574,0,0,0-2.449-3.343.9.9,0,0,1,.178.26,1.622,1.622,0,0,1-.222,1.824c-.713.868-1.826.912-3.072.955h-.4a1.161,1.161,0,0,0-.98.435,1.378,1.378,0,0,0-.133,1.172l-.133.131.178-.087Zm13.934-2.735V3.782c-.044-.086-.044-.086-.044-.13V3.609a2.739,2.739,0,0,1,.133-2.041,2.258,2.258,0,0,1,1.692-.782l.578-.043c1.692-.043,3.028-.087,3.873-1.129a1.831,1.831,0,0,0,.267-2,1.619,1.619,0,0,0-1.47-.912.189.189,0,0,1-.178-.174.189.189,0,0,1,.178-.174,5.406,5.406,0,0,1,5.476,5.341,5.406,5.406,0,0,1-5.476,5.341A5.512,5.512,0,0,1-1498.573,3.826Zm6.945-6.383a2.237,2.237,0,0,1-.312,2.388c-.935,1.173-2.448,1.216-4.141,1.3l-.578.043a1.744,1.744,0,0,0-1.38.652,1.63,1.63,0,0,0-.178,1.607l.044.087a.152.152,0,0,0,.044.087,5.115,5.115,0,0,0,4.675,3,5.012,5.012,0,0,0,5.075-4.951,5.022,5.022,0,0,0-3.651-4.777A1.652,1.652,0,0,1-1491.628-2.557Zm16.427.565a4.384,4.384,0,0,1-4.006-2.562l-.044-.043c-.045-.044-.045-.044-.045-.087v-.044a1.992,1.992,0,0,1,.178-1.65,1.847,1.847,0,0,1,1.38-.652h.445c1.335-.087,2.359-.13,3.027-.912a1.454,1.454,0,0,0,.178-1.52,1.221,1.221,0,0,0-1.113-.695.189.189,0,0,1-.177-.174.189.189,0,0,1,.177-.174,4.354,4.354,0,0,1,4.363,4.3,4.257,4.257,0,0,1-4.213,4.215Zm-3.606-4.082a1.506,1.506,0,0,0-.133,1.3l.044.13a3.99,3.99,0,0,0,3.651,2.345,3.97,3.97,0,0,0,4.006-3.909,3.955,3.955,0,0,0-2.715-3.691,1.581,1.581,0,0,1,.223.348A1.944,1.944,0,0,1-1474-7.594c-.756.955-1.914,1-3.294,1.042h-.446A1.248,1.248,0,0,0-1478.807-6.074Zm-31.162-3.3a5.819,5.819,0,0,1,5.921-5.775,5.819,5.819,0,0,1,5.92,5.775,5.846,5.846,0,0,1-5.92,5.775A5.847,5.847,0,0,1-1509.969-9.374Zm1.291,0a4.6,4.6,0,0,0,4.63,4.516,4.6,4.6,0,0,0,4.63-4.516,4.6,4.6,0,0,0-4.63-4.517A4.571,4.571,0,0,0-1508.679-9.374Zm46.165,5.385a.672.672,0,0,1-.4-.782,4.628,4.628,0,0,0-.267-3.6,4.882,4.882,0,0,0-2.849-2.345,4.836,4.836,0,0,0-1.38-.217.6.6,0,0,1-.623-.608,9.272,9.272,0,0,0-6.544-8.728,9.653,9.653,0,0,0-10.773,3.56.621.621,0,0,1-.712.217,9.534,9.534,0,0,0-10.64,3.3.72.72,0,0,1-.935.174.616.616,0,0,1-.133-.868,10.788,10.788,0,0,1,11.619-3.909,10.947,10.947,0,0,1,11.931-3.691,10.488,10.488,0,0,1,7.39,9.293,5.007,5.007,0,0,1,1.157.261,6.177,6.177,0,0,1,3.562,3,5.814,5.814,0,0,1,.356,4.56.574.574,0,0,1-.578.434C-1462.38-3.947-1462.469-3.99-1462.514-3.99Zm-45.23-3.822v-.043a.134.134,0,0,1-.044-.087v-.043a1.709,1.709,0,0,1,.178-1.52,1.518,1.518,0,0,1,1.246-.608h.4c1.2-.043,2.137-.087,2.76-.825a1.32,1.32,0,0,0,.177-1.39,1.1,1.1,0,0,0-1.023-.651.189.189,0,0,1-.178-.174.189.189,0,0,1,.178-.174A4.017,4.017,0,0,1-1500-9.374a4.017,4.017,0,0,1-4.05,3.951A3.974,3.974,0,0,1-1507.744-7.812Zm.356-.087a3.608,3.608,0,0,0,3.339,2.128,3.623,3.623,0,0,0,3.651-3.561,3.573,3.573,0,0,0-2.449-3.343.882.882,0,0,1,.178.26,1.621,1.621,0,0,1-.222,1.824c-.713.869-1.826.913-3.072.956h-.4a1.162,1.162,0,0,0-.98.434,1.38,1.38,0,0,0-.133,1.173l-.133.13.178-.086Z" transform="translate(1515 22)" fill="url(#linear-gradient)"/>
</svg>
