<svg xmlns="http://www.w3.org/2000/svg" xmlns:xlink="http://www.w3.org/1999/xlink" width="71.998" height="65.544" viewBox="0 0 71.998 65.544">
  <defs>
    <linearGradient id="linear-gradient" x1="-0.71" y1="0.708" x2="1.158" y2="0.701" gradientUnits="objectBoundingBox">
      <stop offset="0" stop-color="#4dd4ff"/>
      <stop offset="0.478" stop-color="#7ea9ff"/>
      <stop offset="0.776" stop-color="#cc64ff"/>
      <stop offset="1" stop-color="#e64dff"/>
    </linearGradient>
  </defs>
  <g id="_9" data-name="9" transform="translate(-331.8 -195.3)">
    <path id="パス_117" data-name="パス 117" d="M414.29,245.606l.275.092c.046,0,.137.046.183.046a.275.275,0,0,0,.183-.046l.275-.092c4.486-1.19,12.541-5.859,16.2-13.686,3.021-6.454,3.3-14.921,3.2-21.558v-1.1a.723.723,0,0,0-.732-.732h-1.1c-7.323,0-13.182-1.556-16.89-4.486l-.687-.549a.7.7,0,0,0-.915,0l-.687.549c-3.707,2.929-9.566,4.486-16.89,4.486h-1.1a.723.723,0,0,0-.732.732v1.1c-.092,6.637.183,15.1,3.2,21.558C401.749,239.793,409.759,244.416,414.29,245.606ZM396.3,210.362v-.412h.412c7.644,0,13.823-1.648,17.805-4.806l.229-.183.229.183c3.982,3.112,10.115,4.806,17.8,4.806h.412v.412h0c.092,6.5-.183,14.738-3.067,20.963-3.433,7.415-11.031,11.763-15.242,12.907l-.092.046-.092-.046c-4.257-1.144-11.809-5.493-15.242-12.907C396.531,225.1,396.256,216.862,396.3,210.362Z" transform="translate(-34.202 -4.352)" fill="url(#linear-gradient)"/>
    <path id="パス_118" data-name="パス 118" d="M385.92,299.2a.313.313,0,0,0-.32.32V304.6a.313.313,0,0,0,.32.32h10.985a.313.313,0,0,0,.32-.32V299.52a.313.313,0,0,0-.32-.32H385.92Zm10.665,5.081H386.241v-4.44h10.3v4.44Z" transform="translate(-29.175 -56.344)" fill="url(#linear-gradient)"/>
    <path id="パス_119" data-name="パス 119" d="M353.724,281.826a3.119,3.119,0,0,0-2.563.6,3.458,3.458,0,0,0-1.282,2.472,3.049,3.049,0,0,0,.732,2.426,3.378,3.378,0,0,0,2.472.961H357.2a3.487,3.487,0,0,0,2.517-.87,2.242,2.242,0,0,0,.641-1.648c0-1.6-.87-2.655-2.7-3.112C356.7,282.421,355.509,282.147,353.724,281.826Zm6,3.982a1.553,1.553,0,0,1-.458,1.19,3.133,3.133,0,0,1-2.105.687h-4.074a2.587,2.587,0,0,1-1.968-.732,2.665,2.665,0,0,1-.549-1.968,2.908,2.908,0,0,1,1.053-2.014,2.64,2.64,0,0,1,2.06-.458c1.739.32,2.929.549,3.845.824C359.034,283.7,359.72,284.481,359.72,285.809Z" transform="translate(-9.795 -46.889)" fill="url(#linear-gradient)"/>
    <path id="パス_120" data-name="パス 120" d="M362.336,249.963c.229-.5.5-.961,1.694-1.19a44.133,44.133,0,0,1,9.429-.732h.137a.32.32,0,0,0,0-.641h-.137a45.548,45.548,0,0,0-9.52.778c-1.556.32-1.968.961-2.2,1.6a50.637,50.637,0,0,0-2.38,7.369c-.183.778.412,1.556,1.465,1.922a28.536,28.536,0,0,0,4.714.778c2.289.092,4.577.137,7.415.137H377.9a.32.32,0,1,0,0-.641h-2.746c-3.936,0-6.774,0-9.612-.137a27.523,27.523,0,0,1-4.531-.732c-.6-.183-1.144-.641-1.053-1.144A45.8,45.8,0,0,1,362.336,249.963Z" transform="translate(-14.928 -28.253)" fill="url(#linear-gradient)"/>
    <path id="パス_121" data-name="パス 121" d="M389.485,267.411h0a.637.637,0,0,0-.641.687v1.1a49.894,49.894,0,0,1-.458,6.591v6.271h-6.225v-3.707a.626.626,0,0,0-.641-.641H351.266a.626.626,0,0,0-.641.641v3.707H344.4v-6.271a55.645,55.645,0,0,1-.458-7.095c0-3.707.32-7.278.778-8.1a20.1,20.1,0,0,1,1.19-1.831c.183-.275.366-.549.549-.778a.725.725,0,0,0,.046-.687.613.613,0,0,0-.6-.366c-2.334,0-3.845,0-4.3-.046a.759.759,0,0,1-.732-.412,4.508,4.508,0,0,1,.183-2.2.77.77,0,0,1,.732-.458c.961-.092,2.563-.183,3.753-.183.549,0,.6.229.641.412a3.578,3.578,0,0,1,.137.641.634.634,0,0,0,.6.5.646.646,0,0,0,.641-.458c.915-2.884,1.968-5.859,3.25-8.834a2.451,2.451,0,0,1,1.877-1.51,54.041,54.041,0,0,1,9.749-.961.665.665,0,0,0,.641-.687.638.638,0,0,0-.687-.641,53.225,53.225,0,0,0-9.978,1.007,3.745,3.745,0,0,0-2.792,2.289c-1.053,2.472-1.968,4.9-2.792,7.323a1.958,1.958,0,0,0-1.282-.412,33.447,33.447,0,0,0-3.936.183,2.087,2.087,0,0,0-1.831,1.236,6.012,6.012,0,0,0-.275,3.021,1.918,1.918,0,0,0,1.968,1.419c.458,0,1.739,0,3.112.046a13.285,13.285,0,0,0-1.1,1.739c-.732,1.373-.915,6.133-.915,8.7a65.255,65.255,0,0,0,.458,7.232v6.088a1.267,1.267,0,0,0,1.236,1.373h6.408a1.242,1.242,0,0,0,1.236-1.373v-2.975h28.927v2.975a1.267,1.267,0,0,0,1.236,1.373h6.362a1.242,1.242,0,0,0,1.236-1.373v-6.042a45.628,45.628,0,0,0,.458-6.728v-1.1A.665.665,0,0,0,389.485,267.411Z" transform="translate(-4.133 -25.379)" fill="url(#linear-gradient)"/>
    <path id="パス_122" data-name="パス 122" d="M418.935,246.8h.092c.092,0,.137,0,.183-.046a.277.277,0,0,0,.137-.275V228.673h15.608a.334.334,0,0,0,.32-.275,63.87,63.87,0,0,0,1.007-13.136.313.313,0,0,0-.32-.32c-7.095-.137-12.724-1.648-16.752-4.531a.282.282,0,0,0-.32-.046.376.376,0,0,0-.183.275v17.3H403.1a.4.4,0,0,0-.275.137.3.3,0,0,0-.046.275,26.91,26.91,0,0,0,1.968,6.225C408.179,241.947,415.548,245.791,418.935,246.8Zm.412-35.473c4.028,2.655,9.475,4.119,16.295,4.3a66.06,66.06,0,0,1-.961,12.4H419.347Zm-.641,17.347V246.02c-3.479-1.144-10.161-4.852-13.365-11.717h0a27.567,27.567,0,0,1-1.831-5.676h15.2Z" transform="translate(-38.48 -8.153)" fill="url(#linear-gradient)"/>
    <path id="パス_123" data-name="パス 123" d="M342.877,218.14a.645.645,0,0,0,.641.6.617.617,0,0,0,.641-.6c.641-9.52.961-9.8,10.482-10.482a.645.645,0,0,0,.6-.641.617.617,0,0,0-.6-.641c-9.52-.641-9.8-.961-10.482-10.482a.643.643,0,0,0-1.282,0c-.641,9.52-.961,9.8-10.482,10.482a.645.645,0,0,0-.6.641.617.617,0,0,0,.6.641C341.961,208.3,342.236,208.619,342.877,218.14Zm.687-16.295c.641,3.2,1.968,4.486,5.126,5.126-3.2.641-4.486,1.968-5.126,5.126-.641-3.2-1.968-4.486-5.126-5.126C341.6,206.331,342.877,205.049,343.563,201.845Z" transform="translate(0)" fill="url(#linear-gradient)"/>
    <path id="パス_124" data-name="パス 124" d="M470.067,311.64c-6-.412-6.133-.549-6.545-6.545a.643.643,0,0,0-1.282,0c-.412,6-.549,6.133-6.545,6.545a.643.643,0,0,0,0,1.282c6,.412,6.133.549,6.545,6.545a.643.643,0,0,0,1.282,0c.412-6,.549-6.133,6.545-6.545a.643.643,0,0,0,0-1.282Zm-7.186,3.067a3.345,3.345,0,0,0-2.426-2.426,3.345,3.345,0,0,0,2.426-2.426,3.345,3.345,0,0,0,2.426,2.426A3.5,3.5,0,0,0,462.881,314.707Z" transform="translate(-66.864 -59.218)" fill="url(#linear-gradient)"/>
  </g>
</svg>
