<svg xmlns="http://www.w3.org/2000/svg" xmlns:xlink="http://www.w3.org/1999/xlink" width="57.008" height="60" viewBox="0 0 57.008 60">
  <defs>
    <linearGradient id="linear-gradient" y1="0.56" x2="1" y2="0.573" gradientUnits="objectBoundingBox">
      <stop offset="0" stop-color="#4dd4ff"/>
      <stop offset="1" stop-color="#e64dff"/>
    </linearGradient>
  </defs>
  <path id="合体_1" data-name="合体 1" d="M-1495.115,38a.714.714,0,0,1-.7-.657c-.044-.394-.044-.744-.087-1.094a38.48,38.48,0,0,1-.087-6.127,9.157,9.157,0,0,1,3.632-7.221c1.575-1.226,3.676-2.057,6.958-2.757a.733.733,0,0,1,.832.569.682.682,0,0,1-.525.788,15,15,0,0,0-6.39,2.494,7.747,7.747,0,0,0-3.107,6.215,42.2,42.2,0,0,0,.088,5.952c.044.35.044.7.087,1.094a.722.722,0,0,1-.657.744Zm-8.14-.481c-.175-.613-4.508-14.53-4.77-15.493a1.319,1.319,0,0,1,.175-1.006,2.281,2.281,0,0,1,.612-.7,8.88,8.88,0,0,0-2.057-3.37c-.612-.525-1.269-1.006-1.926-1.488-.744-.569-1.488-1.138-2.188-1.751a4.313,4.313,0,0,1-1.138-5.3,2.762,2.762,0,0,1,1.707-1.575,4.632,4.632,0,0,1,3.457.481l.481.263c.613.35,1.444.788,2.188,1.225-.044-.175-.088-.35-.132-.569a1.57,1.57,0,0,1,1.094-1.969,2.216,2.216,0,0,1,2.714,1.269l.613,1.838c.175.569.35,1.094.481,1.4a6.534,6.534,0,0,0,.613,1.05,6.176,6.176,0,0,1,.526.788,5.677,5.677,0,0,1,.612,3.02,4.553,4.553,0,0,0,.044.875c.219.613.482,1.313.657,1.707.919.087,1.751.438,1.969,1.182.525,1.575,1.532,4.026,1.532,4.07a.627.627,0,0,1-.35.875.68.68,0,0,1-.875-.394c-.044-.087-1.05-2.538-1.575-4.157-.263-.306-2.232-.482-4.376.044a9.378,9.378,0,0,0-2.845,1.269l-.044.044a1.957,1.957,0,0,0-.612.569c.394,1.357,4.683,15.273,4.726,15.4a.656.656,0,0,1-.437.831.4.4,0,0,1-.219.044A.658.658,0,0,1-1503.255,37.519Zm-9.1-29.322a1.439,1.439,0,0,0-.919.831,2.907,2.907,0,0,0,.788,3.72c.613.569,1.356,1.094,2.1,1.663.657.481,1.357,1.007,1.969,1.532a10.376,10.376,0,0,1,2.363,3.632,10.309,10.309,0,0,1,2.582-1.05,11.874,11.874,0,0,1,2.538-.306c-.175-.394-.35-.831-.481-1.225a3.918,3.918,0,0,1-.131-1.313,4.321,4.321,0,0,0-.437-2.32c-.175-.306-.35-.525-.482-.744a7.394,7.394,0,0,1-.744-1.313c-.132-.35-.307-.919-.482-1.488a16.608,16.608,0,0,0-.569-1.75.831.831,0,0,0-1.007-.481c-.306.087-.262.262-.219.35.088.481.175.831.263,1.182q.131.459.262,1.05a.645.645,0,0,1-.262.744.737.737,0,0,1-.788-.044c-.656-.481-2.451-1.488-3.5-2.057l-.482-.263a3.776,3.776,0,0,0-1.69-.457A2.027,2.027,0,0,0-1512.358,8.2Zm53.392,29.76a.691.691,0,0,1-.656-.744c.043-.394.043-.744.088-1.094a36.456,36.456,0,0,0,.088-5.952,7.811,7.811,0,0,0-3.107-6.215c-1.4-1.094-3.326-1.838-6.39-2.494a.693.693,0,0,1-.525-.788.659.659,0,0,1,.788-.525c3.282.7,5.339,1.488,6.958,2.757a9.158,9.158,0,0,1,3.632,7.221,38.788,38.788,0,0,1-.044,6.083c-.044.35-.044.7-.088,1.094a.711.711,0,0,1-.7.657Zm-14.661-12.035-3.37-1.969-3.37,1.969a1.029,1.029,0,0,1-.35.087.726.726,0,0,1-.526-.219L-1484,22.683a.689.689,0,0,1,.044-.963.688.688,0,0,1,.963.044l2.407,2.669,3.239-1.882h.044a.043.043,0,0,1,.044-.044c0-.044,0-.044.044-.044h.438c.044,0,.044.044.087.044l3.238,1.882,2.407-2.669a.664.664,0,0,1,1.007,0,.689.689,0,0,1,.044.963l-2.757,3.107a.809.809,0,0,1-.525.219A.825.825,0,0,1-1473.626,25.921Zm-8.928-8.534c-5.471-2.232-8.578-7.528-9.759-11.9a3.06,3.06,0,0,1-1.4-.612,7.445,7.445,0,0,1-2.1-4.945A3.217,3.217,0,0,1-1494.9-2.7a2.162,2.162,0,0,1,1.356-.525c-.306-6.039,1.094-10.941,4.07-14.179,2.8-3.064,7-4.595,12.429-4.595s9.584,1.531,12.429,4.595c2.976,3.238,4.376,8.1,4.07,14.179a2.274,2.274,0,0,1,1.356.525,3.124,3.124,0,0,1,.919,2.626,7.346,7.346,0,0,1-2.1,4.945,2.4,2.4,0,0,1-1.4.612c-1.707,6.565-7.046,12.954-15.273,12.954A14.552,14.552,0,0,1-1482.554,17.388Zm-8.49-12.779c.963,4.158,3.851,9.366,9.059,11.466a12.67,12.67,0,0,0,4.989.963c7.7,0,12.6-6.258,14.048-12.429a.673.673,0,0,1,.744-.525,1.263,1.263,0,0,0,1.006-.306,6.276,6.276,0,0,0,1.576-4.026,1.855,1.855,0,0,0-.438-1.444c-.087-.087-.35-.306-1.05-.131a.758.758,0,0,1-.613-.132.7.7,0,0,1-.262-.569c.481-6.039-.788-10.9-3.632-13.96-2.539-2.757-6.433-4.158-11.422-4.158s-8.841,1.4-11.422,4.158c-2.845,3.063-4.114,7.921-3.632,13.96a.7.7,0,0,1-.263.569.758.758,0,0,1-.613.132c-.7-.175-.963.044-1.05.131a1.541,1.541,0,0,0-.35,1.444,6.276,6.276,0,0,0,1.575,4.026,1.263,1.263,0,0,0,1.006.306.711.711,0,0,1,.088-.006A.674.674,0,0,1-1491.045,4.609Zm1.269-8.271c-.044,0-.132-.044-.175-.044a.161.161,0,0,1-.131.044h-.087a.67.67,0,0,1-.7-.569.667.667,0,0,1,.569-.788c3.983-.657,15.755-5.558,19.169-8.709a.764.764,0,0,1,.744-.132.686.686,0,0,1,.394.613,49.361,49.361,0,0,1-.613,5.12,12.959,12.959,0,0,0,4.683-5.339.68.68,0,0,1,.875-.394.68.68,0,0,1,.394.875,14.52,14.52,0,0,1-6.608,6.74.7.7,0,0,1-.657-.088.655.655,0,0,1-.263-.656,7.45,7.45,0,0,0,.175-1.05c.175-1.05.35-2.232.481-3.238v-.175a.555.555,0,0,0,.044-.262c-4.464,3.238-14.179,7.4-18.206,8.052Z" transform="translate(1515 22)" fill="url(#linear-gradient)"/>
</svg>
