<svg xmlns="http://www.w3.org/2000/svg" xmlns:xlink="http://www.w3.org/1999/xlink" width="54.701" height="60" viewBox="0 0 54.701 60">
  <defs>
    <linearGradient id="linear-gradient" y1="0.524" x2="0.765" y2="0.532" gradientUnits="objectBoundingBox">
      <stop offset="0" stop-color="#4dd4ff"/>
      <stop offset="1" stop-color="#e64dff"/>
    </linearGradient>
  </defs>
  <path id="合体_5" data-name="合体 5" d="M-1510.4,38a4.6,4.6,0,0,1-4.6-4.6V-16.306a4.6,4.6,0,0,1,4.6-4.6h7.577V-21.3a.691.691,0,0,1,.7-.7h16.73a.692.692,0,0,1,.7.7v.394h7.576a4.6,4.6,0,0,1,4.6,4.6V-4.438l7.577-7.971a.687.687,0,0,1,.963,0l2.584,2.452.876.832a.7.7,0,0,1,.219.482.591.591,0,0,1-.219.526l-12.044,12.569V33.4a4.6,4.6,0,0,1-4.6,4.6Zm-3.2-54.307V33.358a3.233,3.233,0,0,0,3.241,3.241h33.241a3.233,3.233,0,0,0,3.241-3.241h-.044V5.9l-1.533,1.577V26.7a.322.322,0,0,1-.088.263l-6.482,6.482a.622.622,0,0,1-.262.088h-29.431a.392.392,0,0,1-.394-.394V-16.613a.392.392,0,0,1,.394-.394h8.934v-2.54h-7.577A3.233,3.233,0,0,0-1513.6-16.306Zm2.1,49.051h28.73V26.613a.393.393,0,0,1,.394-.394h6.132V8.132l-5.956,6.219a6.034,6.034,0,0,1-1.751,1.226l-3.9,1.708a1.515,1.515,0,0,1-.569.132.924.924,0,0,1-.657-.263,1.089,1.089,0,0,1-.175-1.226l1.4-3.81a5.946,5.946,0,0,1,1.139-1.8l.657-.657.219-.219h-12.132a.486.486,0,0,1-.482-.482.486.486,0,0,1,.482-.482h13.051l8.672-9.153V-16.263h-8.584v2.672a.692.692,0,0,1-.7.7h-16.73a.692.692,0,0,1-.7-.7v-2.628h-8.54Zm29.606-.482,5.212-5.212h-5.212Zm-3.81-20.934a4.172,4.172,0,0,0-.832,1.314l-1.182,3.2,3.285-1.445a5.476,5.476,0,0,0,1.314-.92l9.416-9.81,11.737-12.175-2.452-2.365Zm1.008-28.2h8.934a.3.3,0,0,1,.307.306V-1.328l1.577-1.664V-16.306a3.233,3.233,0,0,0-3.241-3.241v.044h-7.576Zm-16.73,2.584h15.372V-20.6h-15.372Zm3.46,33.9a.517.517,0,0,1-.482-.482.486.486,0,0,1,.482-.482h16.993a.486.486,0,0,1,.482.482.486.486,0,0,1-.482.482ZM-1508.825,5.9l1.708-1.489,1.752,2.847,4.555-5.212,1.577,1.62-6.263,6Zm0-10.2,1.708-1.489,1.752,2.847,4.555-5.212,1.577,1.664L-1505.5-.54Zm10.861,3.547a.486.486,0,0,1-.482-.482.486.486,0,0,1,.482-.482h16.993a.486.486,0,0,1,.482.482.486.486,0,0,1-.482.482Z" transform="translate(1515 22)" fill="url(#linear-gradient)"/>
</svg>
