<svg xmlns="http://www.w3.org/2000/svg" xmlns:xlink="http://www.w3.org/1999/xlink" width="74.043" height="60" viewBox="0 0 74.043 60">
  <defs>
    <linearGradient id="linear-gradient" y1="0.538" x2="0.935" y2="0.565" gradientUnits="objectBoundingBox">
      <stop offset="0" stop-color="#4dd4ff"/>
      <stop offset="1" stop-color="#e64dff"/>
    </linearGradient>
  </defs>
  <path id="合体_4" data-name="合体 4" d="M-1446.2,37.591l-2.178-4.318c0,.045-.045.091-.045.136a.645.645,0,0,1-.363.409l-4.083,2.091a.839.839,0,0,1-.317.091.768.768,0,0,1-.635-.409l-.953-1.863a.763.763,0,0,1-.045-.546.8.8,0,0,1,.363-.409l-.408-.818-.409.091h-.181a.684.684,0,0,1-.635-.409l-5.762-12.909c-.272-.591-.454-.636-1.225-.272-1.316.591-5.036,2.182-5.081,2.182a.683.683,0,0,1-.907-.364l-.408-.954v-.046a3.228,3.228,0,0,1-.5.318,1.07,1.07,0,0,1-.363.091.752.752,0,0,1-.545-.227l-.5-.591a.761.761,0,0,1,.045-1,1.537,1.537,0,0,0,.363-1.364,22.2,22.2,0,0,0-1.543-4.318,5.261,5.261,0,0,0-.68-.909,4.05,4.05,0,0,1-.862-1.364c-.046-.091-.091-.455-.227-.909l-1.316.318-.091,2.591a.723.723,0,0,1-.544.682l-3.811.909-4.31,1.046a.759.759,0,0,1-.5.409L-1489.2,16h-.181a.487.487,0,0,1-.363-.091.657.657,0,0,1-.318-.455l-.454-1.863a.8.8,0,0,1,.454-.818l2.041-.773-.408-1.636-.5.455a.489.489,0,0,1-.318.136.489.489,0,0,1-.317-.136.487.487,0,0,1,.045-.637l.317-.182-.5-.136a.474.474,0,0,1-.272-.591.472.472,0,0,1,.59-.273l.59.182L-1489.2,7.5l-2.177.227h-.091a.723.723,0,0,1-.681-.545l-.453-1.864a.732.732,0,0,1,.544-.864l4.355-1.045a.651.651,0,0,1,.635.136l4.264-1.045V1.091L-1485.8-.272a4.4,4.4,0,0,1-2.5-3.818l-.091-14.591a.044.044,0,0,0-.045-.045.732.732,0,0,1-.226-.5v-1.954a.656.656,0,0,1,.68-.727l15.47-.091a.729.729,0,0,1,.5.227.731.731,0,0,1,.227.5v1.955a.73.73,0,0,1-.227.5l.091,14.591a3.648,3.648,0,0,1-.272,1.364,12.665,12.665,0,0,0,6.805.637l3.176-.591a.81.81,0,0,1,.635.182l.726-.318a1.406,1.406,0,0,1,.045-.455.645.645,0,0,1,.363-.409l1.5-.636a.735.735,0,0,1,.952.363l1.406,3.227a1.113,1.113,0,0,1,0,.546.611.611,0,0,1-.272.318l.136.273V.364l1-.227V.091a.783.783,0,0,1,.091-.546.655.655,0,0,1,.454-.318l2.042-.5a.769.769,0,0,1,.862.546l1.043,4.409a.784.784,0,0,1-.091.546.657.657,0,0,1-.453.318l-.771.182.363.818a.625.625,0,0,1-.045.682c-.544.727-1.27,2.227-.907,3,2,4.409,8.937,19.091,9.028,19.227a.627.627,0,0,1,.045.5c.045.045.045.091.091.137l2.949,5.864a.673.673,0,0,1,0,.591.8.8,0,0,1-.362.409l-3.856,1.955a.838.838,0,0,1-.318.091A.768.768,0,0,1-1446.2,37.591Zm-.5-7.682-.681.182.272.591a.762.762,0,0,1,.046.546.806.806,0,0,1-.363.409l-.091.045,2.314,4.591,2.632-1.364-2.314-4.591-.091.045a.693.693,0,0,1-.953-.318l-.136-.273Zm-6.714,1.591.59,1.182a.762.762,0,0,1,.046.546.806.806,0,0,1-.363.409l.318.636,2.858-1.409-.317-.637a.759.759,0,0,1-.545.045.645.645,0,0,1-.408-.364l-.408-.818Zm3.765-.864a2.121,2.121,0,0,1,.318.318l.181.318c0-.045.046-.091.046-.136a.8.8,0,0,1,.363-.409l.091-.046-.136-.227Zm-10.888-12.545L-1455,30.546l6.4-1.546,2.722-.636.136-.045c-1.452-3.137-6.941-14.637-8.665-18.455-.68-1.454.272-3.318.771-4.091l-.136-.318-2.268.545a.73.73,0,0,1-.862-.545l-.227-1.046-.136-.5-.635-2.682-2.495.591a.706.706,0,0,1-.817-.409l-.272-.637-.045-.136-.862-2-2.631.5a14.418,14.418,0,0,1-7.758-.818A4.491,4.491,0,0,1-1474.1-.545a1,1,0,0,1-.045.364,2.043,2.043,0,0,1,2.45,1.591c0,.045.182.773.454,1.863l3.312-.772a.706.706,0,0,1,.817.409l4.9,11.5a2.294,2.294,0,0,1,.091,1.727,1.718,1.718,0,0,1-.408.682,2.194,2.194,0,0,1,.292-.02A1.838,1.838,0,0,1-1460.532,18.091ZM-1470.059,8c.862,3.454,1.77,7.091,2,7.954a2.639,2.639,0,0,1-.363,2.137c1.044-.455,3.04-1.319,4.4-1.909a1.006,1.006,0,0,0,.589-.545.572.572,0,0,0-.091-.591l-3.312-7.818Zm-3.9-6.728a.9.9,0,0,0-.454.318.939.939,0,0,0-.046.637s1.634,6.818,1.77,7.409c0,.136.318.5.544.727a4.789,4.789,0,0,1,.907,1.182,25.478,25.478,0,0,1,1.724,4.682,3.458,3.458,0,0,1,.045.954,1.356,1.356,0,0,0,.091-.864c-.408-1.682-3.629-14.364-3.675-14.5a.675.675,0,0,0-.681-.591C-1473.825,1.227-1473.87,1.273-1473.961,1.273Zm-15.016,12.636.136.546,2.995-.727-.227-.954Zm2.722-9.227,2,8.409,3.176-.773-1.724-7.182-.272-1.227Zm4.582-1.182,1.588,6.682.408,1.773,2.586-.546.182-6.182a.723.723,0,0,1,.544-.682l.953-.227c-.227-1-.408-1.727-.408-1.773a2.42,2.42,0,0,1,0-1.273Zm-6.533,3.727,1.089,4.455,1-.409-1-4.182Zm12.7-.682-.045,1.319.953-.227a9.791,9.791,0,0,1-.318-1.227Zm4.809-1.182a12.2,12.2,0,0,0,.317,1.228l2.995-.727-.5-1.182Zm-20.279.137.136.545,3.085-.318-.227-.954Zm36.882-2.591a.738.738,0,0,1,.681.5l.635-.137L-1453.5.228l-.635.136V.409a.786.786,0,0,1-.091.546.655.655,0,0,1-.454.318l-1.678.41.408,1.682,1.678-.455Zm-27.265-1.091,1.633-.591h-1.633Zm-5.58-20.455.091,14.409a2.979,2.979,0,0,0,1.633,2.5l3.266,1.5h3.765l3.266-1.5a3.256,3.256,0,0,0,1.633-2.591l-.091-14.409h-.136Zm27.719,15.773a1.409,1.409,0,0,1-.045.455.645.645,0,0,1-.363.409l-1.316.546.408.954,1.316-.591a1.1,1.1,0,0,1,.544,0,.957.957,0,0,1,.272.182l.226-.091-.862-1.955Zm-27.946-17.727v.545l14.018-.091v-.545Zm-21.957,49.046a.487.487,0,0,1,.045-.637l.952-.864a.439.439,0,0,1,.635,0,.488.488,0,0,1-.045.637l-.953.864a.489.489,0,0,1-.318.136A.489.489,0,0,1-1509.119,28.455Zm2.994-2.727a.488.488,0,0,1,.045-.636l2.087-1.864a.438.438,0,0,1,.635,0,.488.488,0,0,1-.045.637l-2.087,1.863a.492.492,0,0,1-.318.137A.488.488,0,0,1-1506.125,25.728ZM-1502,22a.488.488,0,0,1,.045-.636l2.087-1.864a.438.438,0,0,1,.635,0,.488.488,0,0,1-.045.637L-1501.362,22a.491.491,0,0,1-.318.136A.49.49,0,0,1-1502,22Zm4.174-3.727a.488.488,0,0,1,.045-.637l2.087-1.863a.437.437,0,0,1,.635,0,.488.488,0,0,1-.045.636l-2.087,1.864a.49.49,0,0,1-.318.136A.491.491,0,0,1-1497.823,18.273Zm4.128-3.727a.488.488,0,0,1,.046-.637l2.087-1.863a.437.437,0,0,1,.635,0,.488.488,0,0,1-.045.636l-2.087,1.864a.49.49,0,0,1-.318.136A.491.491,0,0,1-1493.7,14.546Zm1.406-5.773-2.631-.864a.474.474,0,0,1-.272-.591.471.471,0,0,1,.59-.272l2.631.864a.473.473,0,0,1,.272.591.436.436,0,0,1-.408.318A.342.342,0,0,1-1492.289,8.773Zm-5.262-1.682-2.632-.864a.58.58,0,0,1-.317-.637.471.471,0,0,1,.589-.273l2.631.864a.473.473,0,0,1,.272.591.436.436,0,0,1-.408.318Zm-5.308-1.728-2.631-.864a.473.473,0,0,1-.272-.591.472.472,0,0,1,.59-.273l2.631.864a.363.363,0,0,1,.227.546.436.436,0,0,1-.408.318Zm-5.308-1.773-2.631-.864a.473.473,0,0,1-.272-.591.472.472,0,0,1,.59-.273l2.631.864a.473.473,0,0,1,.272.591.436.436,0,0,1-.408.318A.342.342,0,0,1-1508.167,3.591Zm-5.308-1.682L-1514.7,1.5a.473.473,0,0,1-.272-.591.472.472,0,0,1,.59-.273l1.225.409a.351.351,0,0,1,.227.545.436.436,0,0,1-.408.318Z" transform="translate(1515 22)" fill="url(#linear-gradient)"/>
</svg>
