<svg xmlns="http://www.w3.org/2000/svg" xmlns:xlink="http://www.w3.org/1999/xlink" width="84.965" height="59.914" viewBox="0 0 84.965 59.914">
  <defs>
    <linearGradient id="linear-gradient" x1="-0.437" y1="0.571" x2="1" y2="0.581" gradientUnits="objectBoundingBox">
      <stop offset="0" stop-color="#4dd4ff"/>
      <stop offset="0.708" stop-color="#ae7eff"/>
      <stop offset="1" stop-color="#e64dff"/>
    </linearGradient>
  </defs>
  <g id="グループ_1556" data-name="グループ 1556" transform="translate(-359 -2220)">
    <g id="_7" data-name="7" transform="translate(359 2220)">
      <path id="パス_107" data-name="パス 107" d="M435.462,260.778c-4.522-4.9-16.688-15.665-19.487-18.141a1.356,1.356,0,0,0-.323-1.4l-.915-.915a1.261,1.261,0,0,0-.915-.377h0a1.913,1.913,0,0,0-.538.108l-1.184-1.184a1.323,1.323,0,0,0-.269-1.453l-1.453-1.453a1.172,1.172,0,0,0-.431-.269l1.292-1.292a1.72,1.72,0,0,0,.754.161,1.327,1.327,0,0,0,.915-.431l1.184-1.238a1.43,1.43,0,0,0,0-2.046l-.215-.215a1.833,1.833,0,0,1,1.346-1.346l.323.323a1.261,1.261,0,0,0,.915.377h0a1.4,1.4,0,0,0,.915-.377l1.884-1.884a1.334,1.334,0,0,0,0-1.83l-14.427-14.319a1.261,1.261,0,0,0-.915-.377h0a1.4,1.4,0,0,0-.915.377l-1.884,1.884a1.261,1.261,0,0,0-.377.915,1.4,1.4,0,0,0,.377.915l.323.323a1.534,1.534,0,0,1-.484.861h0a1.534,1.534,0,0,1-.861.484l-.269-.269a1.43,1.43,0,0,0-1.992,0l-1.184,1.238a1.605,1.605,0,0,0-.431.915,1.72,1.72,0,0,0,.161.754l-9.69,9.743a1.719,1.719,0,0,0-.754-.161,1.327,1.327,0,0,0-.915.431l-1.238,1.184a1.43,1.43,0,0,0,0,1.992l.269.269a1.832,1.832,0,0,1-1.346,1.346l-.323-.323a1.261,1.261,0,0,0-.915-.377,1.109,1.109,0,0,0-.915.377l-1.884,1.884a1.283,1.283,0,0,0,0,1.83l14.319,14.427a1.261,1.261,0,0,0,.915.377h0a1.181,1.181,0,0,0,.915-.377l1.884-1.884a1.261,1.261,0,0,0,.377-.915,1.181,1.181,0,0,0-.377-.915l-.323-.323a1.833,1.833,0,0,1,1.346-1.346l.215.215a1.348,1.348,0,0,0,.969.431h0a1.261,1.261,0,0,0,.969-.431l1.238-1.184a1.408,1.408,0,0,0,.269-1.615l1.83-1.83a1.172,1.172,0,0,0,.269.431l1.453,1.453a1.261,1.261,0,0,0,.915.377h0a1.913,1.913,0,0,0,.538-.108l1.184,1.184a1.323,1.323,0,0,0,.269,1.453l.915.915a1.261,1.261,0,0,0,.915.377h0a1.572,1.572,0,0,0,.484-.108c2.422,2.638,12.812,14.1,18.356,19.271a5.962,5.962,0,0,0,4.091,1.776,4.551,4.551,0,0,0,3.23-1.346C437.508,266.538,437.939,263.47,435.462,260.778ZM403.81,213.03l13.942,13.835-1.346,1.346-.054-.054V228.1h0l-13.727-13.619h0l-.054-.054Zm-2.53,5.222a4.023,4.023,0,0,0,1.346-1.346L413.822,228a4.022,4.022,0,0,0-1.346,1.346l-7.267-7.213ZM393.8,250.766l-13.835-13.942,1.346-1.346.054.054v.054h0l13.619,13.727h.054l.054.054Zm2.53-5.222a2.617,2.617,0,0,0-.754.592,4.066,4.066,0,0,0-.592.754l-11.089-11.2a4.064,4.064,0,0,0,.754-.592h0a4.064,4.064,0,0,0,.592-.754l6.89,6.944Zm3.714-2.315a1.408,1.408,0,0,0-.269,1.615l-.861.861-3.015-3.015-10.766-10.82h0l-.108-.108.861-.861a1.433,1.433,0,0,0,.646.161h0a1.471,1.471,0,0,0,1.023-.431l10.013-10.066a1.471,1.471,0,0,0,.431-1.023,1.085,1.085,0,0,0-.161-.592l.861-.861.108.108h0l.7.646,13.081,12.973h0l.108.108-.861.861a1.406,1.406,0,0,0-1.669.269Zm4.845-1.292,4.522-4.576.969.915-.323.323h0l-.646.646-3.553,3.607Zm4.037,2.853-1.346-1.292,1.561-1.615,1.776-1.776,1.346,1.292a1.323,1.323,0,0,0,1.453.269l.484.484-4.522,4.576-.484-.484A1.184,1.184,0,0,0,408.924,244.79Zm25.785,22.178c-1.077,1.077-3.015,1.292-5.006-.538-5.491-5.06-15.772-16.418-18.249-19.11l3.445-3.445c2.8,2.476,14.965,13.242,19.325,18.033C436.055,263.9,435.732,265.946,434.709,266.969Z" transform="translate(-352.24 -211.2)" fill="url(#linear-gradient)"/>
      <path id="パス_108" data-name="パス 108" d="M389.484,308.33a1.488,1.488,0,0,0-1.4-1.13h-.054l-.054-.538a2.411,2.411,0,0,0-.484-1.184c-.592-.7-1.023-1.077-1.507-1.077H357.078a1.757,1.757,0,0,0-1.4.754c-.054.108-.108.161-.108.269,0,0,0,.108-.054.108a2.167,2.167,0,0,0-.377,1.077l-.054.538h-.054a1.488,1.488,0,0,0-1.4,1.13l-.969,4.414a1.139,1.139,0,0,0,.215,1.023,1.261,1.261,0,0,0,.969.431h35.475a1.261,1.261,0,0,0,.969-.431,1.139,1.139,0,0,0,.215-1.023Zm-35.152,4.2.807-3.607h.108a1.345,1.345,0,0,0,1.346-1.184l.108-.807a2.332,2.332,0,0,1,.054-.269,2.181,2.181,0,0,0,.269-.484h28.692a5.666,5.666,0,0,1,.431.484h0a2.332,2.332,0,0,1,.054.269l.108.807a1.381,1.381,0,0,0,1.346,1.184h.108l.807,3.607Z" transform="translate(-340.39 -254.23)" fill="url(#linear-gradient)"/>
      <path id="パス_109" data-name="パス 109" d="M366.386,248.239a.549.549,0,0,0,.431.269.485.485,0,0,0,.269-.054.513.513,0,0,0,.161-.7l-2.853-5.06a.508.508,0,1,0-.861.538Z" transform="translate(-345.392 -225.63)" fill="url(#linear-gradient)"/>
      <path id="パス_110" data-name="パス 110" d="M355.422,259.43a.489.489,0,0,0,.377.161.582.582,0,0,0,.377-.161.46.46,0,0,0,0-.7l-2.315-2.369a.495.495,0,1,0-.7.7Z" transform="translate(-340.565 -231.976)" fill="url(#linear-gradient)"/>
      <path id="パス_111" data-name="パス 111" d="M344.139,269.371l-5.706-3.338a.508.508,0,0,0-.538.861l5.706,3.338a.4.4,0,0,0,.269.054.549.549,0,0,0,.431-.269A.451.451,0,0,0,344.139,269.371Z" transform="translate(-333.481 -236.48)" fill="url(#linear-gradient)"/>
      <path id="パス_112" data-name="パス 112" d="M340.421,284.806l-3.338-.915a.5.5,0,0,0-.215.969l3.338.915h.108a.517.517,0,0,0,.484-.377A.5.5,0,0,0,340.421,284.806Z" transform="translate(-332.938 -244.756)" fill="url(#linear-gradient)"/>
      <path id="パス_113" data-name="パス 113" d="M336.2,299.954l-5.814-.054h0a.484.484,0,0,0,0,.969l5.814.054h0a.484.484,0,0,0,0-.969Z" transform="translate(-329.9 -252.152)" fill="url(#linear-gradient)"/>
    </g>
  </g>
</svg>
