<svg xmlns="http://www.w3.org/2000/svg" xmlns:xlink="http://www.w3.org/1999/xlink" width="59.017" height="60" viewBox="0 0 59.017 60">
  <defs>
    <linearGradient id="linear-gradient" y1="0.42" x2="0.953" y2="0.455" gradientUnits="objectBoundingBox">
      <stop offset="0" stop-color="#4dd4ff"/>
      <stop offset="1" stop-color="#e64dff"/>
    </linearGradient>
  </defs>
  <g id="グループ_1550" data-name="グループ 1550" transform="translate(-870.114 -1485)">
    <path id="パス_30" data-name="パス 30" d="M437.417,285.708,417.423,265.89a.851.851,0,0,0-1.186,0,.833.833,0,0,0,0,1.175l19.993,19.818c.216.214.593.588-.108,1.656a19.164,19.164,0,0,1-2.479,2.778,20.024,20.024,0,0,1-2.8,2.457c-1.078.694-1.4.32-1.671.107l-19.993-19.818a.851.851,0,0,0-1.186,0,.833.833,0,0,0,0,1.175l19.993,19.818a2.521,2.521,0,0,0,1.778.8,3.309,3.309,0,0,0,1.94-.694,20.332,20.332,0,0,0,3.072-2.671,19.882,19.882,0,0,0,2.641-2.991C438.71,287.632,438.117,286.4,437.417,285.708Z" transform="translate(490.951 1249.142)" fill="url(#linear-gradient)"/>
    <path id="パス_31" data-name="パス 31" d="M357,218.418c.054.107.108.267.216.321l19.4,19.231-.97.962a.775.775,0,0,0,0,1.175l1.132,1.122a.791.791,0,0,0,1.186,0,.833.833,0,0,0,0-1.175l-.539-.534.97-.962a.775.775,0,0,0,0-1.175l-19.832-19.658-.7-2.137,2.156.694,19.832,19.658a.851.851,0,0,0,1.186,0l.97-.962.539.534a.851.851,0,0,0,1.186,0,.833.833,0,0,0,0-1.175l-1.132-1.122a.851.851,0,0,0-1.185,0l-.97.962-19.4-19.231a1.128,1.128,0,0,0-.323-.214l-3.5-1.068a.843.843,0,0,0-.862.214l-.27.267a.826.826,0,0,0-.216.855Z" transform="translate(514.895 1273.378)" fill="url(#linear-gradient)"/>
    <path id="パス_32" data-name="パス 32" d="M403.257,226.93a1.979,1.979,0,0,1,1.671-.641,7.536,7.536,0,0,0,5.389-1.389,7.968,7.968,0,0,0,2.587-3.472c.97-2.511.97-6.2-.862-8.013a.8.8,0,0,0-.7-.214.715.715,0,0,0-.593.427c-.431.748-1.024,1.709-1.509,2.617-.593,1.015-1.132,1.976-1.4,2.457a1.607,1.607,0,0,1-1.4.641,4.362,4.362,0,0,1-2.8-1.6,1.417,1.417,0,0,1-.162-1.5c.269-.481.862-1.549,1.455-2.671.485-.855.97-1.709,1.347-2.457a.845.845,0,0,0,0-.8.7.7,0,0,0-.647-.427c-2.587-.214-7.114,2.617-8.407,5.983a8.924,8.924,0,0,0-.431,4.541,2.944,2.944,0,0,1-1.024,1.923c-.054.053-.054.053-.054.107l-30.394,30.128c-.862.855-1.239.962-1.994.908a7.536,7.536,0,0,0-5.389,1.389,7.969,7.969,0,0,0-2.587,3.472c-.97,2.511-.97,6.2.862,8.013a.8.8,0,0,0,.7.214.715.715,0,0,0,.593-.427c.431-.748.97-1.709,1.509-2.618.593-1.015,1.132-2.03,1.455-2.457a1.572,1.572,0,0,1,1.347-.641,4.362,4.362,0,0,1,2.8,1.6,1.417,1.417,0,0,1,.162,1.5c-.269.534-.862,1.6-1.509,2.724-.485.855-.97,1.709-1.347,2.4a.722.722,0,0,0,0,.8.7.7,0,0,0,.647.427h.323c2.641,0,6.844-2.778,8.084-6.036a8.923,8.923,0,0,0,.431-4.541,2.945,2.945,0,0,1,1.024-1.923ZM371.3,256.2a4.476,4.476,0,0,0-1.509,3.365,7.119,7.119,0,0,1-.323,3.686c-.754,1.977-3.233,3.953-5.173,4.7.162-.32.323-.588.485-.908.647-1.122,1.239-2.19,1.509-2.724a3.127,3.127,0,0,0-.323-3.258,6.057,6.057,0,0,0-4.15-2.3h-.054a3.175,3.175,0,0,0-2.748,1.442c-.323.481-.862,1.5-1.455,2.564-.269.481-.539.962-.808,1.389a7.636,7.636,0,0,1,.162-5.235,6.367,6.367,0,0,1,2.048-2.724,5.548,5.548,0,0,1,4.257-1.068,3.762,3.762,0,0,0,3.287-1.389l30.448-30.181.108-.107a4.314,4.314,0,0,0,1.455-3.312,7.12,7.12,0,0,1,.323-3.686c.754-1.976,3.233-3.953,5.173-4.7-.162.321-.377.641-.539.962-.647,1.122-1.239,2.19-1.509,2.671a3.127,3.127,0,0,0,.323,3.259,6.057,6.057,0,0,0,4.15,2.3,3.366,3.366,0,0,0,2.856-1.442c.323-.481.862-1.5,1.455-2.511l.808-1.442a7.636,7.636,0,0,1-.162,5.235,6.367,6.367,0,0,1-2.048,2.724,5.548,5.548,0,0,1-4.257,1.068,3.565,3.565,0,0,0-2.964,1.068Z" transform="translate(515.411 1275.121)" fill="url(#linear-gradient)"/>
    <path id="パス_33" data-name="パス 33" d="M416.292,281.019l16.6,16.453a.791.791,0,0,0,1.186,0,.833.833,0,0,0,0-1.175l-16.6-16.506a.851.851,0,0,0-1.186,0A.9.9,0,0,0,416.292,281.019Z" transform="translate(487.124 1242.667)" fill="url(#linear-gradient)"/>
  </g>
</svg>
