<svg xmlns="http://www.w3.org/2000/svg" xmlns:xlink="http://www.w3.org/1999/xlink" width="37.452" height="60" viewBox="0 0 37.452 60">
  <defs>
    <linearGradient id="linear-gradient" x1="0.027" y1="0.447" x2="0.955" y2="0.456" gradientUnits="objectBoundingBox">
      <stop offset="0" stop-color="#4dd4ff"/>
      <stop offset="1" stop-color="#e64dff"/>
    </linearGradient>
  </defs>
  <path id="合体_2" data-name="合体 2" d="M-1496.34,37.957c-.043,0-.043-.044-.086-.044-.043-.044-.043-.044-.087-.044-.043-.044-.086-.044-.129-.088a.043.043,0,0,1-.043-.044c-.043,0-.043-.044-.086-.087l-7.672-13.873a.67.67,0,0,1,.259-.919.649.649,0,0,1,.905.263l3.793,6.915.776-2.8-1.681-1.926a.7.7,0,0,1-.172-.569.676.676,0,0,1,.345-.481l3.664-2.188h.043c0-.044,0-.044.043-.044a.043.043,0,0,1,.043-.044h.345a.042.042,0,0,0,.043.044.133.133,0,0,0,.086.044l3.663,2.188a.58.58,0,0,1,.345.481.817.817,0,0,1-.172.569l-1.681,1.926.776,2.8,3.793-6.915a.64.64,0,0,1,.906-.263,1,1,0,0,1,.431.919l-7.672,13.873c-.043,0-.043.044-.086.087a.043.043,0,0,0-.043.044c-.043.044-.086.044-.129.088s-.043.044-.086.044c-.043.044-.043.044-.086.044a.257.257,0,0,1-.173.044C-1496.21,38-1496.3,37.957-1496.34,37.957ZM-1498.926,25l1.38,1.575a.636.636,0,0,1,.129.612l-1.207,4.508,2.328,4.2,2.328-4.2-1.207-4.508a.548.548,0,0,1,.129-.612l1.379-1.575-2.629-1.532Zm-15.129,13a.707.707,0,0,1-.69-.657c-.043-.394-.043-.744-.086-1.094a39.127,39.127,0,0,1-.086-6.127,9.2,9.2,0,0,1,3.577-7.221c1.552-1.226,3.621-2.057,6.854-2.757a.671.671,0,0,1,.776.525.825.825,0,0,1-.474.831A14.647,14.647,0,0,0-1510.477,24a7.784,7.784,0,0,0-3.06,6.215,42.811,42.811,0,0,0,.086,5.952c.043.35.043.7.086,1.094a.718.718,0,0,1-.647.744Zm35.56-.044a.688.688,0,0,1-.647-.744c.043-.394.043-.744.086-1.094a36.9,36.9,0,0,0,.086-5.952,7.851,7.851,0,0,0-3.06-6.215c-1.379-1.094-3.276-1.838-6.293-2.494a.693.693,0,0,1-.518-.788.65.65,0,0,1,.776-.525c3.233.7,5.259,1.488,6.854,2.757a9.2,9.2,0,0,1,3.577,7.221,45.789,45.789,0,0,1-.043,6.083c-.043.35-.043.7-.086,1.094a.7.7,0,0,1-.69.657Zm-23.232-20.569c-5.388-2.232-8.448-7.528-9.612-11.9a2.991,2.991,0,0,1-1.379-.612,7.5,7.5,0,0,1-2.069-4.945,3.247,3.247,0,0,1,.905-2.626,2.113,2.113,0,0,1,1.336-.525c-.3-6.039,1.078-10.941,4.008-14.179,2.759-3.064,6.9-4.595,12.241-4.595s9.439,1.531,12.241,4.595c2.931,3.238,4.31,8.1,4.008,14.179a2.223,2.223,0,0,1,1.336.525,3.153,3.153,0,0,1,.905,2.626,7.4,7.4,0,0,1-2.069,4.945,2.345,2.345,0,0,1-1.379.612c-1.681,6.565-6.94,12.954-15.043,12.954A14.142,14.142,0,0,1-1501.727,17.388Zm-8.362-12.779c.949,4.158,3.793,9.366,8.922,11.466a12.314,12.314,0,0,0,4.914.963c7.586,0,12.413-6.258,13.836-12.429a.663.663,0,0,1,.733-.525,1.23,1.23,0,0,0,.991-.306,6.326,6.326,0,0,0,1.552-4.026,1.873,1.873,0,0,0-.431-1.444c-.086-.087-.345-.306-1.035-.131a.738.738,0,0,1-.6-.132.709.709,0,0,1-.259-.569c.474-6.039-.776-10.9-3.577-13.96-2.5-2.757-6.293-4.158-11.25-4.158-4.914,0-8.707,1.4-11.25,4.158-2.8,3.063-4.052,7.921-3.578,13.96a.709.709,0,0,1-.259.569.739.739,0,0,1-.6.132c-.689-.175-.948.044-1.034.131a1.558,1.558,0,0,0-.345,1.444,6.327,6.327,0,0,0,1.552,4.026,1.231,1.231,0,0,0,.991.306.689.689,0,0,1,.087-.006A.666.666,0,0,1-1510.089,4.609Zm26.681-10.766a.651.651,0,0,1-.646-.569,4.371,4.371,0,0,0-1.638-3.326,6.962,6.962,0,0,1-1.767-2.188A60.8,60.8,0,0,1-1500.133-7.6c-4.095.875-7.457-.175-9.008-1.575a.658.658,0,0,1-.043-.963.635.635,0,0,1,.948-.044c1.207,1.182,4.181,2.057,7.759,1.269a58.352,58.352,0,0,0,12.931-4.858.829.829,0,0,1,.56-.044.855.855,0,0,1,.388.394,5.672,5.672,0,0,0,1.724,2.363c.863.744,1.681,1.488,2.112,4.114a.7.7,0,0,1-.561.788Z" transform="translate(1515 22)" fill="url(#linear-gradient)"/>
</svg>
