<svg xmlns="http://www.w3.org/2000/svg" width="139.268" height="20.122" viewBox="0 0 139.268 20.122">
  <g id="グループ_20" data-name="グループ 20" transform="translate(-25 -32)">
    <path id="パス_1" data-name="パス 1" d="M64.315,247.4c-1.122-1.368-1.082-3.546.175-5.725,2.677-4.638,8.612-8.76,19.142-8.76,2.512,0,3.47,1.431,3.7,2.859,1.052-1.626,3.2-3.375,6.836-4.193H89.756c-11.259,0-25.145.638-30.552,10.007a6.181,6.181,0,0,0,.425,7.323c2.552,2.683,7.788,2.683,13.13,2.683H78.2c1.048-1.814,1.826-3.163,2.9-5.018a13.555,13.555,0,0,1-8.6,3.506C68.439,250.08,65.927,249.364,64.315,247.4Z" transform="translate(-33.219 -199.473)" fill="#fff"/>
    <path id="パス_2" data-name="パス 2" d="M206.754,240.937H196.077c-2.527,0-2.727-1.319-1.709-3.083,1.881-3.261,5.507-4.939,14.077-4.939,2.662,0,3.52,1.635,3.7,2.858.717-1.242,1.591-2.756,2.42-4.192-3.748,0-6.325,0-8.581.025-6.939.078-14.106,1.309-16.652,5.721-1.73,3-1.328,5.122,2.655,5.122h11.133c2.068,0,1.7,1.73.926,3.066a8.129,8.129,0,0,1-3.823,3.137c-3.167,1.383-7.808,1.429-11.095,1.429-3.268,0-4.875-1.107-5.37-3.1-.974,1.688-2.22,3.848-2.66,4.608h11.626c7,0,13.831-1.176,16.2-5.279C211.086,242.562,209.588,240.937,206.754,240.937Z" transform="translate(-132.683 -199.473)" fill="#fff"/>
    <path id="パス_3" data-name="パス 3" d="M482.248,299.344a2.44,2.44,0,0,0-2.192-1.014,3.818,3.818,0,0,0-3.88,2.2l-1.225,2.123a1.865,1.865,0,0,0-.151,1.957,2.44,2.44,0,0,0,2.192,1.014,3.818,3.818,0,0,0,3.88-2.2L482.1,301.3A1.869,1.869,0,0,0,482.248,299.344Zm-1.618,1.991-1.073,1.86a2.746,2.746,0,0,1-2.563,1.666.99.99,0,0,1-.9-.446c-.236-.408-.107-1.048.328-1.8l1.073-1.86a2.745,2.745,0,0,1,2.563-1.666.99.99,0,0,1,.9.446C481.194,299.942,481.065,300.582,480.63,301.335Z" transform="translate(-370.246 -253.503)" fill="#fff"/>
    <path id="パス_4" data-name="パス 4" d="M529.6,279.952c-.629-1.09-2.1-1.692-4.145-1.692h-3.882a.629.629,0,0,1,.246.423c.057.339-.05.678-.473,1.41l-4.322,7.487h0c-.459.8-1.1,1.645-1.866,1.793h5.326c4.274,0,6.213-1.187,8.45-5.065C529.931,282.59,530.207,281,529.6,279.952Zm-2.361,4.132c-2.068,3.583-3.594,4.534-6.889,4.534h-2.094l5.54-9.6h1.26c1.66,0,2.714.366,3.129,1.086C528.635,280.882,528.193,282.433,527.24,284.084Z" transform="translate(-403.082 -237.258)" fill="#fff"/>
    <path id="パス_5" data-name="パス 5" d="M443.58,305.385a1.2,1.2,0,0,1,.255-.829l3.156-5.467h1.248a1.4,1.4,0,0,1,1.048.286l.6-1.044h-6.367l-.574.993a2.337,2.337,0,0,1,1.122-.234h1.473l-2.961,5.132h0a2.949,2.949,0,0,1-1.393,1.4H443.8A.418.418,0,0,1,443.58,305.385Z" transform="translate(-343.208 -253.503)" fill="#fff"/>
    <path id="パス_6" data-name="パス 6" d="M342.438,289.057a1.608,1.608,0,0,1,.307-1.124l5.584-9.673c-6.977.974-12.1,3.508-16.438,11.116h2.555a.516.516,0,0,1-.238-.444,2.014,2.014,0,0,1,.354-1.02,21.533,21.533,0,0,1,1.178-1.8h6.23l-.85,1.475h0a3.944,3.944,0,0,1-1.871,1.791h3.5A.493.493,0,0,1,342.438,289.057Zm-5.963-3.9a16.913,16.913,0,0,1,9.378-5.78l-3.335,5.78Z" transform="translate(-254.737 -237.258)" fill="#fff"/>
    <path id="パス_7" data-name="パス 7" d="M579.227,304.871l1.456-2.508h2.523a1.4,1.4,0,0,1,1.048.286l.795-1.376a2.475,2.475,0,0,1-1.376.333h-2.548l1.456-2.508h3.71a1.4,1.4,0,0,1,1.048.286l.6-1.044h-6.729a.843.843,0,0,1-.1.8l-2.937,5.088a2.952,2.952,0,0,1-1.393,1.4h6.952s.616-1.065.629-1.09a2.475,2.475,0,0,1-1.376.334h-3.758Z" transform="translate(-452.959 -253.511)" fill="#fff"/>
    <path id="パス_8" data-name="パス 8" d="M746.176,299.19a1.881,1.881,0,0,0-1.631-.85h-3.8a.843.843,0,0,1-.1.8L737.7,304.23h0a2.949,2.949,0,0,1-1.393,1.4h2.613a.423.423,0,0,1-.221-.234,1.148,1.148,0,0,1,.233-.791l1.292-2.239H742l.72,2.355a1.166,1.166,0,0,0,1.305.911H745c-.774-.09-.955-.558-1.107-1.065l-.675-2.235a3.205,3.205,0,0,0,2.9-1.66A1.431,1.431,0,0,0,746.176,299.19Zm-1.248,1.052a2.521,2.521,0,0,1-2.58,1.364h-1.681l1.45-2.512h2.239a.782.782,0,0,1,.677.332A.825.825,0,0,1,744.928,300.242Z" transform="translate(-582.088 -253.511)" fill="#fff"/>
    <path id="パス_9" data-name="パス 9" d="M432.206,238.984c.663-.3,1.867-.934,2.978-1.49a82.09,82.09,0,0,1,10.923-4.414c1.9-.6,6.14-.972,10.592-.972a67.118,67.118,0,0,1,11.716.694c4.562.941,11.039,3.874,13.906,4.888,1.95.688,5.132.842,7.6,1.176.69.093.919.3.825,1.01a19.375,19.375,0,0,0-.2,3.221,2.907,2.907,0,0,1,.619.09,16.378,16.378,0,0,1,.36-3.152c.233-1.088-.038-1.728-1.319-1.9-2.733-.364-5.532-.564-7.291-1.222-3.219-1.2-9.641-4.187-14.167-5.155-2.557-.547-6.376-.738-11.989-.738-4.636,0-8.907.37-11.07,1.092a86.312,86.312,0,0,0-10.939,4.642c-1.077.553-2.306,1.218-3,1.528a9.878,9.878,0,0,1-3.573.957c-.871.111-3.836.385-5.393.616l-.4.69c1.744-.276,5.107-.549,5.721-.606A10.277,10.277,0,0,0,432.206,238.984Z" transform="translate(-327.991 -199.02)" fill="#fff"/>
    <path id="パス_10" data-name="パス 10" d="M409.025,299.235a1.848,1.848,0,0,1,.974-.913h-2.256a.843.843,0,0,1-.1.8l-2.344,4.063a2.746,2.746,0,0,1-2.563,1.665.99.99,0,0,1-.9-.446c-.236-.408-.107-1.048.328-1.8l1.946-3.373a1.849,1.849,0,0,1,.974-.913h-2.256a.843.843,0,0,1-.1.8l-2.028,3.518a1.865,1.865,0,0,0-.151,1.957,2.44,2.44,0,0,0,2.191,1.014,3.818,3.818,0,0,0,3.88-2.2Z" transform="translate(-310.138 -253.495)" fill="#fff"/>
    <path id="パス_11" data-name="パス 11" d="M623.817,305.377c-.072-.214.078-.522.253-.827l3.594-6.23C622.69,299,619.5,301,616.88,305.611h1.984a.311.311,0,0,1-.2-.227,1.138,1.138,0,0,1,.221-.757c.2-.343.4-.663.606-.966h3.64l-.316.549h0a2.949,2.949,0,0,1-1.393,1.4h2.613A.412.412,0,0,1,623.817,305.377Zm-3.764-2.47a10.49,10.49,0,0,1,5.681-3.747l-2.161,3.747Z" transform="translate(-485.418 -253.495)" fill="#fff"/>
    <path id="パス_12" data-name="パス 12" d="M664.245,304.854H660.51l3.243-5.622a1.849,1.849,0,0,1,.974-.913h-2.254a.843.843,0,0,1-.1.8l-2.937,5.086a2.958,2.958,0,0,1-1.393,1.4h6.952s.625-1.082.629-1.09A2.451,2.451,0,0,1,664.245,304.854Z" transform="translate(-518.734 -253.495)" fill="#fff"/>
    <path id="パス_13" data-name="パス 13" d="M703.4,304.871h-3.756l1.456-2.508h2.523a1.4,1.4,0,0,1,1.048.286l.795-1.376a2.476,2.476,0,0,1-1.376.333h-2.548L703,299.1h3.71a1.4,1.4,0,0,1,1.048.286l.6-1.044h-6.727a.843.843,0,0,1-.1.8l-2.937,5.086h0a2.949,2.949,0,0,1-1.393,1.4h6.952s.625-1.082.629-1.09A2.507,2.507,0,0,1,703.4,304.871Z" transform="translate(-550.431 -253.511)" fill="#fff"/>
  </g>
</svg>
