<svg xmlns="http://www.w3.org/2000/svg" width="163.741" height="23.658" viewBox="0 0 163.741 23.658">
  <g id="グループ_19" data-name="グループ 19" transform="translate(-25 -32)">
    <path id="パス_1" data-name="パス 1" d="M65.386,250.179c-1.32-1.609-1.273-4.17.206-6.731,3.148-5.453,10.125-10.3,22.506-10.3,2.953,0,4.08,1.683,4.353,3.361,1.237-1.911,3.766-3.968,8.037-4.929H95.3c-13.237,0-29.564.751-35.92,11.765-1.786,3.1-1.42,6.589.5,8.61,3,3.155,9.157,3.155,15.437,3.155h6.4c1.232-2.133,2.146-3.719,3.406-5.9a15.937,15.937,0,0,1-10.112,4.123C70.235,253.331,67.282,252.489,65.386,250.179Z" transform="translate(-33.219 -199.454)" fill="#221815"/>
    <path id="パス_2" data-name="パス 2" d="M211.262,242.581H198.708c-2.971,0-3.206-1.55-2.01-3.625,2.211-3.834,6.475-5.807,16.551-5.807,3.13,0,4.138,1.922,4.353,3.361.842-1.461,1.871-3.24,2.845-4.929-4.407,0-7.436,0-10.089.029-8.158.092-16.584,1.539-19.578,6.726-2.034,3.527-1.562,6.023,3.121,6.023h13.089c2.431,0,2,2.034,1.089,3.605a9.558,9.558,0,0,1-4.495,3.688c-3.724,1.627-9.179,1.68-13.044,1.68-3.842,0-5.731-1.3-6.314-3.641-1.145,1.985-2.61,4.524-3.128,5.418h13.669c8.225,0,16.262-1.382,19.042-6.206C216.355,244.492,214.594,242.581,211.262,242.581Z" transform="translate(-128.568 -199.455)" fill="#221815"/>
    <path id="パス_3" data-name="パス 3" d="M483.593,299.522a2.869,2.869,0,0,0-2.577-1.192,4.489,4.489,0,0,0-4.562,2.583l-1.441,2.5a2.192,2.192,0,0,0-.177,2.3,2.869,2.869,0,0,0,2.577,1.192,4.489,4.489,0,0,0,4.562-2.583l1.441-2.5A2.2,2.2,0,0,0,483.593,299.522Zm-1.9,2.341-1.261,2.187a3.228,3.228,0,0,1-3.013,1.958,1.164,1.164,0,0,1-1.06-.524c-.278-.479-.125-1.232.385-2.12L478,301.178a3.228,3.228,0,0,1,3.014-1.958,1.164,1.164,0,0,1,1.06.524C482.354,300.225,482.2,300.978,481.691,301.863Z" transform="translate(-356.304 -251.249)" fill="#221815"/>
    <path id="パス_4" data-name="パス 4" d="M532.139,280.25c-.739-1.282-2.471-1.99-4.873-1.99H522.7a.739.739,0,0,1,.289.5c.067.4-.058.8-.556,1.658l-5.081,8.8h0c-.54.937-1.3,1.934-2.193,2.108h6.262c5.026,0,7.3-1.4,9.935-5.955C532.526,283.35,532.851,281.484,532.139,280.25Zm-2.776,4.857c-2.431,4.212-4.226,5.33-8.1,5.33H518.8l6.513-11.285H526.8c1.952,0,3.191.43,3.679,1.277C531,281.343,530.483,283.167,529.363,285.107Z" transform="translate(-387.781 -235.676)" fill="#221815"/>
    <path id="パス_5" data-name="パス 5" d="M444,306.624a1.412,1.412,0,0,1,.3-.975l3.71-6.428h1.468a1.646,1.646,0,0,1,1.232.336l.708-1.228h-7.486l-.674,1.167a2.748,2.748,0,0,1,1.32-.276h1.732l-3.482,6.034h0a3.466,3.466,0,0,1-1.638,1.647h3.072A.491.491,0,0,1,444,306.624Z" transform="translate(-330.384 -251.249)" fill="#221815"/>
    <path id="パス_6" data-name="パス 6" d="M344.291,290.955a1.891,1.891,0,0,1,.361-1.322l6.565-11.373c-8.2,1.145-14.23,4.125-19.327,13.069h3a.607.607,0,0,1-.28-.522,2.368,2.368,0,0,1,.417-1.2c.446-.764.91-1.465,1.385-2.12h7.324l-1,1.734h0a4.638,4.638,0,0,1-2.2,2.106h4.12A.58.58,0,0,1,344.291,290.955Zm-7.011-4.582a19.886,19.886,0,0,1,11.026-6.8l-3.921,6.8Z" transform="translate(-245.573 -235.676)" fill="#221815"/>
    <path id="パス_7" data-name="パス 7" d="M579.657,306.018l1.712-2.949h2.966a1.646,1.646,0,0,1,1.232.336l.934-1.618a2.91,2.91,0,0,1-1.618.392h-3l1.712-2.949h4.362a1.646,1.646,0,0,1,1.232.336l.708-1.228h-7.911a.991.991,0,0,1-.121.945l-3.453,5.982a3.471,3.471,0,0,1-1.638,1.645h8.173s.724-1.252.739-1.282a2.909,2.909,0,0,1-1.618.392h-4.418Z" transform="translate(-435.595 -251.257)" fill="#221815"/>
    <path id="パス_8" data-name="パス 8" d="M747.909,299.339a2.211,2.211,0,0,0-1.918-1h-4.47a.991.991,0,0,1-.121.945l-3.453,5.98h0a3.467,3.467,0,0,1-1.638,1.647h3.072a.5.5,0,0,1-.26-.276,1.35,1.35,0,0,1,.273-.93l1.519-2.633H743l.847,2.769a1.371,1.371,0,0,0,1.535,1.071h1.147c-.91-.105-1.123-.656-1.3-1.252l-.793-2.628a3.768,3.768,0,0,0,3.415-1.952A1.683,1.683,0,0,0,747.909,299.339Zm-1.467,1.237a2.964,2.964,0,0,1-3.034,1.6h-1.976l1.7-2.953h2.633a.919.919,0,0,1,.8.39A.97.97,0,0,1,746.442,300.576Z" transform="translate(-559.382 -251.257)" fill="#221815"/>
    <path id="パス_9" data-name="パス 9" d="M433.931,240.383c.78-.347,2.2-1.1,3.5-1.752a96.512,96.512,0,0,1,12.843-5.189c2.234-.708,7.219-1.143,12.453-1.143,6.52,0,11.138.273,13.775.816,5.364,1.107,12.979,4.555,16.349,5.747,2.292.809,6.034.99,8.935,1.382.811.11,1.08.354.97,1.187a22.779,22.779,0,0,0-.235,3.786,3.418,3.418,0,0,1,.728.105,19.251,19.251,0,0,1,.423-3.706c.273-1.279-.045-2.032-1.55-2.234-3.213-.428-6.5-.663-8.572-1.436-3.784-1.414-11.335-4.922-16.656-6.061-3.007-.643-7.5-.867-14.1-.867-5.451,0-10.472.435-13.015,1.284a101.472,101.472,0,0,0-12.861,5.458c-1.266.65-2.711,1.432-3.524,1.8a11.614,11.614,0,0,1-4.2,1.125c-1.024.13-4.51.453-6.341.724l-.468.811c2.05-.325,6-.645,6.726-.712A12.081,12.081,0,0,0,433.931,240.383Z" transform="translate(-315.796 -199.02)" fill="#221815"/>
    <path id="パス_10" data-name="パス 10" d="M410.552,299.4a2.173,2.173,0,0,1,1.145-1.073h-2.653a.991.991,0,0,1-.121.945l-2.756,4.777A3.228,3.228,0,0,1,403.154,306a1.164,1.164,0,0,1-1.06-.524c-.278-.479-.126-1.232.385-2.12l2.288-3.966a2.173,2.173,0,0,1,1.145-1.073h-2.653a.991.991,0,0,1-.121.945l-2.384,4.136a2.192,2.192,0,0,0-.177,2.3,2.869,2.869,0,0,0,2.577,1.192,4.489,4.489,0,0,0,4.562-2.583Z" transform="translate(-298.682 -251.241)" fill="#221815"/>
    <path id="パス_11" data-name="パス 11" d="M625.035,306.617c-.085-.251.092-.614.3-.972l4.226-7.324c-5.848.8-9.6,3.152-12.679,8.572h2.332a.366.366,0,0,1-.231-.267,1.337,1.337,0,0,1,.26-.89c.233-.4.47-.78.712-1.136h4.28l-.372.645h0a3.467,3.467,0,0,1-1.638,1.647H625.3A.484.484,0,0,1,625.035,306.617Zm-4.425-2.9a12.333,12.333,0,0,1,6.679-4.4l-2.541,4.4Z" transform="translate(-466.71 -251.241)" fill="#221815"/>
    <path id="パス_12" data-name="パス 12" d="M665.335,306h-4.391l3.813-6.61a2.174,2.174,0,0,1,1.145-1.073h-2.651a.991.991,0,0,1-.121.945l-3.453,5.98a3.477,3.477,0,0,1-1.638,1.647h8.173s.735-1.273.739-1.282A2.882,2.882,0,0,1,665.335,306Z" transform="translate(-498.648 -251.241)" fill="#221815"/>
    <path id="パス_13" data-name="パス 13" d="M704.491,306.018h-4.416l1.712-2.949h2.966a1.646,1.646,0,0,1,1.232.336l.934-1.618a2.91,2.91,0,0,1-1.618.392h-3l1.712-2.949h4.362a1.646,1.646,0,0,1,1.232.336l.708-1.228h-7.909a.991.991,0,0,1-.121.945l-3.453,5.98h0a3.467,3.467,0,0,1-1.638,1.647h8.173s.735-1.273.739-1.282A2.948,2.948,0,0,1,704.491,306.018Z" transform="translate(-529.034 -251.257)" fill="#221815"/>
  </g>
</svg>
